<?xml version="1.0" encoding="UTF-8"?>
<svg id="Ebene_5" data-name="Ebene 5" xmlns="http://www.w3.org/2000/svg" viewBox="0 0 1129.5 2436">
  <path d="m451.95,1312.54c-.34,2.87-1.05,5.46-2.12,7.78s-2.45,4.31-4.13,5.97c-1.68,1.66-3.66,2.95-5.91,3.85-2.26.9-4.75,1.35-7.46,1.35s-5.15-.45-7.18-1.35-3.67-2.18-4.94-3.85-2.12-3.66-2.58-5.97-.52-4.91-.17-7.78l5.57-45.64h-14.47l-4.06,33.3c-9.28-.06-18.57,1.2-27.62,3.75-1.11.31-2.23.65-3.34,1-1.9-1.6-4.35-2.56-7.02-2.56-6.03,0-10.91,4.89-10.91,10.91s4.89,10.91,10.91,10.91c5.37,0,9.84-3.88,10.74-9,.86-.27,1.71-.53,2.57-.76,7.66-2.15,15.5-3.27,23.33-3.34l-.17,1.43c-.57,4.56-.36,8.75.63,12.57.99,3.83,2.7,7.15,5.11,9.96,2.41,2.81,5.48,5.01,9.22,6.57,3.73,1.57,8.05,2.35,12.95,2.35s9.46-.78,13.58-2.35,7.7-3.76,10.77-6.57c3.06-2.81,5.56-6.13,7.49-9.96,1.93-3.83,3.19-8.02,3.76-12.57l5.63-45.64h-14.53l-5.63,45.64h0Z" fill="#8bd06a"/>
  <path d="m524.38,1290.89c-1.28-1.84-2.91-3.23-4.88-4.19s-4.18-1.43-6.63-1.43c-3.83,0-7.54,1.01-11.14,3.04-3.6,2.03-6.89,5.13-9.88,9.3l.29-6.83c.08-1.65-.32-2.84-1.18-3.59s-2.08-1.12-3.65-1.12h-7.41l-6.83,57.07h14.58l2.99-27.5c.73-2.79,1.71-5.33,2.96-7.61,1.24-2.28,2.62-4.22,4.13-5.83s3.09-2.85,4.74-3.73c1.65-.88,3.25-1.32,4.82-1.32,2.3,0,3.88.74,4.74,2.21.86,1.47,1.08,3.97.66,7.49l-4.31,36.29h14.58l4.25-36.29c.42-3.45.37-6.51-.14-9.19-.52-2.68-1.42-4.94-2.7-6.77h0Z" fill="#8bd06a"/>
  <polygon points="533.48 1343.14 547.83 1343.14 554.67 1286.13 540.31 1286.13 533.48 1343.14" fill="#8bd06a"/>
  <path d="m553.54,1268.06c-.72-.71-1.53-1.26-2.46-1.67-.93-.4-1.88-.6-2.85-.6s-1.91.21-2.8.63-1.69.97-2.39,1.67c-.7.69-1.26,1.51-1.68,2.44-.42.93-.63,1.92-.63,2.95s.21,2,.63,2.92.97,1.72,1.66,2.42c.68.69,1.47,1.24,2.36,1.64s1.81.6,2.75.6,1.92-.2,2.85-.6c.93-.4,1.75-.95,2.48-1.64.73-.69,1.32-1.5,1.75-2.42.44-.92.66-1.89.66-2.92s-.21-2.05-.63-2.97-.99-1.73-1.7-2.44h0Z" fill="#8bd06a"/>
  <path d="m582.42,1286.96c2.43-2.7,5.33-4.79,8.7-6.29,3.37-1.49,7.08-2.24,11.14-2.24,2.22,0,4.15.14,5.8.43,1.65.29,3.13.67,4.45,1.15,1.32.48,2.53,1.03,3.62,1.66,1.09.63,2.19,1.29,3.3,1.98,1.11.76,2.2,1.02,3.27.77s1.99-.87,2.76-1.87l4.65-6.09c-1.38-1.42-2.93-2.76-4.65-4.02-1.72-1.26-3.67-2.37-5.86-3.33s-4.62-1.71-7.32-2.27-5.71-.83-9.04-.83c-6.2,0-11.94,1.08-17.23,3.24-5.28,2.16-9.87,5.19-13.75,9.07-3.89,3.89-6.93,8.5-9.13,13.84-2.2,5.34-3.3,11.19-3.3,17.54,0,4.94.8,9.49,2.41,13.66,1.61,4.17,3.88,7.78,6.8,10.82,2.93,3.04,6.46,5.43,10.59,7.15,4.13,1.72,8.71,2.58,13.72,2.58,3.06,0,5.94-.16,8.64-.49,2.7-.32,5.26-.81,7.69-1.46,2.43-.65,4.76-1.49,6.98-2.53,2.22-1.03,4.36-2.26,6.43-3.67l3.73-31.01h-25.32l-.92,8.27c-.08.76.13,1.38.63,1.84.5.46,1.19.69,2.07.69h9.07l-1.66,13.72c-2.14.99-4.39,1.77-6.75,2.32-2.35.55-5.08.83-8.18.83s-6.06-.53-8.64-1.58c-2.58-1.05-4.79-2.58-6.63-4.59-1.84-2.01-3.26-4.44-4.28-7.29-1.01-2.85-1.52-6.1-1.52-9.73,0-4.59.68-8.78,2.04-12.57,1.36-3.79,3.25-7.03,5.69-9.73h0Z" fill="#00ada7"/>
  <path d="m741.3,1286.63l-25.92-3.87-1.61,10.8,14.5,2.16c-4.44,3.21-9.07,5.79-13.85,7.71-8.2,3.3-16.64,4.59-25.14,3.86-.19-2.99-.78-5.7-1.77-8.13-1.22-3.02-2.92-5.57-5.08-7.64-2.16-2.07-4.72-3.64-7.66-4.71-2.95-1.07-6.16-1.61-9.65-1.61-4.44,0-8.61.87-12.52,2.61s-7.32,4.15-10.25,7.23c-2.93,3.08-5.24,6.72-6.95,10.91-1.7,4.19-2.55,8.76-2.55,13.69,0,3.9.61,7.37,1.84,10.39,1.22,3.02,2.91,5.57,5.05,7.64,2.14,2.07,4.7,3.64,7.66,4.71,2.97,1.07,6.19,1.61,9.67,1.61,4.44,0,8.62-.88,12.55-2.64,3.92-1.76,7.35-4.19,10.28-7.29,2.93-3.1,5.24-6.75,6.92-10.94.64-1.61,1.17-3.26,1.56-4.96,1.84.16,3.69.24,5.52.24,8.32,0,16.55-1.62,24.58-4.85,4.98-2,9.8-4.6,14.43-7.77l-1.7,11.37,10.8,1.61,3.87-25.94c.44-2.98-1.61-5.76-4.59-6.2h0Zm-67.68,31.85c-.76,2.81-1.87,5.28-3.3,7.41s-3.17,3.82-5.2,5.08c-2.03,1.26-4.33,1.89-6.89,1.89-3.6,0-6.3-1.07-8.1-3.22s-2.7-5.49-2.7-10.05c0-3.14.38-6.12,1.15-8.96s1.87-5.3,3.3-7.41c1.43-2.1,3.18-3.78,5.23-5.02,2.05-1.24,4.34-1.87,6.86-1.87,3.64,0,6.34,1.05,8.12,3.16,1.78,2.1,2.67,5.47,2.67,10.11,0,3.1-.38,6.06-1.15,8.87Z" fill="#00ada7"/>
</svg>