<?xml version="1.0" encoding="UTF-8"?>
<svg xmlns="http://www.w3.org/2000/svg" viewBox="0 0 646.28 234.59">
  <g id="Ebene_2" data-name="Ebene 2">
    <path d="m300.52,234.59c65.43,0,118.47-52.51,118.47-117.29S365.95,0,300.52,0s-118.47,52.51-118.47,117.29,53.04,117.29,118.47,117.29Z" fill="#fff"/>
    <path d="m301.16,49.31c3.4-.24,6.62-.26,9.05-.26,4.61,0,8.35.39,11.18,1.2,6.07,1.6,10.4,4.62,12.94,9.02,2.56,4.42,3.83,9.11,3.83,14.07,0,5.51-1.78,10.9-5.47,15.07-2.88,3.25-3.19,3.27-6.43.96-1.27-.9-6.49-5.17-6.74-6.6,3.02,15.54-3.17,32.51-15.54,42.56,16.93-4.62,35.13-4.62,52.06,0-1.06-1.9-4.86-6.6-4.42-8.7.3-1.47,4.46-4.15,5.56-5.37,4.82-5.38,8.41-11.35,10.76-17.93,2.35-6.58,3.53-13.25,3.53-19.97,0-14.53-3.76-26.55-11.24-36.12-7.5-9.55-18.83-15.48-33.97-17.81-4.14-.64-9-.96-14.6-.96-4.27,0-8.56.08-12.85,0-7.82-.13-13.1,3.04-20.16,6.45,3.17,2.03,6.23,4.21,9.17,6.56,2.13,1.71,4.29,3.63,5.22,6.18,1.1,3.03.25,6.48-1.46,9.21-1.71,2.72-9.93,1.47-12.37,3.59,3.47-3.01,15.83-.71,21.92-1.15h.02Z" fill="#00ada7"/>
    <path d="m271.86,177.05c.55-10.26.44-20.58.44-30.8,0-9.04,7.42-16.37,16.57-16.37h6.95c6.17,0,11.83,3.4,14.67,8.83,4.37,8.32,8.73,16.65,13.1,24.99,2.79,5.34,5.41,10.84,8.43,16.07,1.9,3.29,3.45,4.79,2.3,8.7-1.16,3.91-4.38,7.27-8.07,8.83,13.78-.17,27.6,3.01,39.88,9.19-1.21-.62,3.13-14.71,3.61-16.25,1.73-5.53,4.31-10.69,6.53-15.95-1.44,3.42-7.5,3.83-9.98,1.79-1.82-1.49-2.41-4.9-3.3-6.99-1.2-2.82-2.45-5.64-3.74-8.42-6.45-13.83-14.06-27.13-20.54-40.96-2.56-5.52-4.8-11.29-8.29-16.35-1.2-1.73-2.83-3.34-4.84-4.1-2.22-.81-4.78-.23-7.08-.19-3.32.08-6.62.13-9.94.15-6.62.08-13.27.08-19.89.08h-5.85c-5.77,0-10.44-4.62-10.44-10.33v-27.92c0-5.71,4.74-10.96,10.53-10.96,2.52-.08,7.29-.56,9.58.51,2.66,1.24,5.35,6.48,7.17,8.78,2.22-9.04,5.3-12.12,9.24-18.7.99-1.63,6.57-8.38,6.28-10.26-.53-3.65-11.84-10.09-14.73-12.4-4.06-3.29-8.14-6.58-12.2-9.85.47,3.38-.49,9.7-4,11.44-2.3,1.13-8.24.17-10.88.23l-10.4.23c-3.25.08-6.79-.24-9.96.3-4.65.81-8.83,3.65-11.29,7.63-1.58,2.56-2.43,5.54-2.43,8.55v120.47c0,15.15-.91,30.29-1.54,45.44-.15,3.7.04,6.05,3.57,7.69,2.81,1.32,8.18-9.08,11.08-8.08,4.02,1.39,6.68,13.76,10.76,11.67,4.97-2.56,5.58-10.69,6.43-15.47,1.25-6.99,1.94-14.09,2.32-21.18l-.04-.02Z" fill="#1c1f1f"/>
    <path d="m305.7,49.08c3.4-.24,2.09-.06,4.52-.06,4.61,0,8.35.39,11.18,1.2,6.07,1.6,10.4,4.62,12.94,9.02,2.56,4.42,3.83,9.11,3.83,14.07,0,5.51-1.78,10.9-5.47,15.07-2.88,3.25-3.19,3.27-6.43.96-1.27-.9-6.49-5.17-6.74-6.6,3.02,15.54-3.17,32.51-15.54,42.56,16.93-4.62,35.13-4.62,52.06,0-1.06-1.9-4.86-6.6-4.42-8.7.3-1.47,4.46-4.15,5.56-5.37,4.82-5.38,8.41-11.35,10.76-17.93,2.35-6.58,3.53-13.25,3.53-19.97,0-14.53-3.76-26.55-11.24-36.12-7.5-9.55-18.83-15.48-33.97-17.81-4.14-.64-3.8,8.57-9.39,8.57" fill="#00ada7"/>
  </g>
  <g id="Ebene_1" data-name="Ebene 1">
    <path d="m56.48,175.13c-8.1,0-15.56-1.45-22.4-4.36-6.83-2.91-12.81-6.97-17.92-12.18-5.11-5.21-9.09-11.33-11.92-18.34-2.83-7.01-4.25-14.68-4.25-23s1.39-16.01,4.18-23.08c2.79-7.07,6.74-13.17,11.84-18.34,5.11-5.17,11.1-9.17,17.99-12.03,6.89-2.86,14.37-4.28,22.47-4.28s15.35,1.35,21.79,4.06c6.43,2.71,11.86,6.29,16.32,10.75,4.46,4.45,7.65,9.34,9.57,14.66l-18.52,8.57c-2.13-5.62-5.71-10.24-10.78-13.91-5.07-3.66-11.18-5.49-18.37-5.49s-13.34,1.65-18.75,4.96c-5.41,3.31-9.62,7.87-12.6,13.68-2.98,5.81-4.48,12.63-4.48,20.44s1.5,14.66,4.48,20.52c2.98,5.86,7.19,10.45,12.6,13.75,5.41,3.31,11.67,4.96,18.75,4.96s13.3-1.82,18.37-5.49c5.07-3.66,8.65-8.29,10.78-13.91l18.52,8.57c-1.92,5.32-5.11,10.2-9.57,14.66-4.46,4.45-9.89,8.04-16.32,10.75-6.43,2.71-13.68,4.06-21.79,4.06Z" fill="#1c1f1f"/>
    <path d="m111.58,173.33l39.02-111.99h26.72l39.02,111.99h-22.47l-8.05-24.05h-43.73l-8.2,24.05h-22.32Zm36.44-42.09h31.89l-18.83-55.77h5.77l-18.83,55.77Z" fill="#1c1f1f"/>
    <path d="m400.6,173.33V61.33h20.65v111.99h-20.65Z" fill="#00ada7"/>
    <path d="m442.97,173.33V61.33h36.9c11.94,0,22.34,2.39,31.2,7.14,8.86,4.75,15.72,11.33,20.57,19.69,4.86,8.36,7.29,18.06,7.29,29.09s-2.43,20.61-7.29,29.09c-4.86,8.47-11.71,15.09-20.57,19.84-8.86,4.75-19.26,7.14-31.2,7.14h-36.9Zm20.65-18.04h16.7c7.69,0,14.35-1.58,19.97-4.74,5.62-3.16,10-7.57,13.13-13.23,3.13-5.66,4.71-12.35,4.71-20.07s-1.58-14.53-4.71-20.14c-3.13-5.62-7.52-9.98-13.13-13.08-5.62-3.1-12.28-4.66-19.97-4.66h-16.7v75.92Z" fill="#00ada7"/>
    <path d="m541.51,173.33l39.02-111.99h26.72l39.02,111.99h-22.47l-8.05-24.05h-43.73l-8.2,24.05h-22.32Zm36.44-42.09h31.89l-18.83-55.77h5.77l-18.83,55.77Z" fill="#00ada7"/>
  </g>
</svg>