<?xml version="1.0" encoding="UTF-8"?>
<!-- Created with Inkscape (http://www.inkscape.org/) -->
<svg width="201.23" height="201.23" version="1.1" viewBox="0 0 20.123 20.123" xmlns="http://www.w3.org/2000/svg">
 <g transform="translate(-96.205 -58.398)">
  <g transform="matrix(.26458 0 0 .26458 4.8871 56.666)">
   <path id="Hintergrund" d="m383.16 81.207c20.23 0 36.631-16.401 36.631-36.633 0-20.229-16.398-36.629-36.631-36.629-20.229 0-36.63 16.399-36.63 36.629 0 20.231 16.401 36.633 36.63 36.633" fill="#fff"/>
   <path id="Ring" d="m383.16 6.546c21.003 2e-3 38.025 17.026 38.027 38.03-2e-3 21.001-17.024 38.027-38.027 38.027-21.004 0-38.028-17.025-38.028-38.027 0-21.004 17.024-38.028 38.028-38.03zm0 2.798c-9.735 0-18.532 3.942-24.914 10.319-6.377 6.381-10.318 15.178-10.318 24.914 0 9.732 3.941 18.532 10.318 24.913 6.382 6.377 15.179 10.316 24.914 10.319 9.732-3e-3 18.532-3.942 24.911-10.319 6.379-6.381 10.318-15.181 10.32-24.913-2e-3 -9.735-3.941-18.533-10.32-24.914-6.379-6.377-15.179-10.319-24.911-10.319z" fill="#67cb33"/>
   <path id="Blaetter" d="m397.69 56.47m-24.388-35.004-0.399 0.62c9e-3 3e-3 0.02 7e-3 0.026 0.01 0.146-0.203 0.288-0.406 0.44-0.606-0.021-9e-3 -0.045-0.017-0.067-0.024m27.456 21.722c-0.624 0.059-1.268 0.164-1.911 0.309 0.222 3.116 0.082 8.043-0.662 12.178 0.97-0.282 1.901-0.584 2.806-0.94 0.6-2.705 1.186-8.558 1.239-11.591-0.626 2e-3 -1.136 0.013-1.472 0.044m2.207-0.048c0.068 2.932-0.173 7.75-0.758 11.07 1-0.463 1.962-1.016 2.897-1.691 0.436-2.16 1.021-6.919 1.102-9.44-1.174 0.05-2.296 0.057-3.241 0.061m-8.308 2.049c0.207 3.174 0.313 7.271-0.562 11.583 1.288-0.285 1.619-0.415 2.772-0.731 0.719-2.731 1.313-9.087 1.29-12.372-1.208 0.335-2.41 0.833-3.5 1.52m12.297-2.153c-0.028 1.876-0.288 6.061-0.712 8.584 0.932-0.798 1.837-1.748 2.724-2.89 0.406-1.841 0.852-4.818 0.899-6.015-0.941 0.164-1.934 0.26-2.911 0.321m-16.452 13.253c0.174 0.84 1.173 0.985 2.31 0.772 0.78-2.337 1.158-7.967 1.202-11.433-2.768 2.034-4.598 5.432-3.512 10.661m22.558-14.531c-0.699 0.358-1.547 0.622-2.464 0.816-0.025 1.113-0.194 2.958-0.38 4.398 0.959-1.462 1.903-3.178 2.844-5.214m-2.011 8.842c1.572-0.14 2.926-0.147 4.223-0.058 0.015-1.148-0.018-2.35-0.128-3.63-0.959 0.327-1.804 0.677-2.405 1.017-0.836 0.471-1.191-0.504 0.063-1.041 0.806-0.343 1.544-0.612 2.245-0.829-0.145-1.356-0.345-2.766-0.639-4.272-0.084-0.423-0.376-0.214-0.567 0.19-8.396 17.764-15.81 13.467-29.746 19.763 3.735-5.945 5.31-17.163 5.31-17.163 4.391-0.636 7.808-2.984 9.868-6.201-2.843 1.101-5.89 2.491-7.991 4.059-0.994 0.741-1.445-0.314-0.018-1.351 2.525-1.828 5.78-2.92 8.602-3.725 0.979-1.869 1.535-3.976 1.598-6.184-3.383 1.606-7.024 3.632-10.063 6.41-0.914 0.837-1.66-0.161-0.313-1.303 3.205-2.713 7.284-4.702 10.378-5.926-0.052-1.9-0.467-3.859-1.285-5.791-2.734 1.92-5.924 4.061-8.973 7.748-0.792 0.955-1.668 0.092-0.514-1.244 2.682-3.099 6.424-5.539 9.165-7.215-0.723-1.504-1.694-2.985-2.935-4.4-2.299 2.148-4.207 3.807-6.828 8.057-0.65 1.054-1.651 0.415-0.676-1.055 2.316-3.49 4.653-5.678 6.963-7.596-1.028-1.089-2.225-2.132-3.593-3.111-1.707 2.081-3.471 4.438-4.536 7.388-0.396 1.107-1.467 0.618-0.718-0.944 1.473-3.079 2.966-5.017 4.655-6.865-1.131-0.767-2.376-1.489-3.738-2.161-0.943 1.964-1.702 3.915-1.979 5.265-0.235 1.154-1.335 0.9-0.822-0.697 0.622-1.921 1.45-3.493 2.228-4.843-1.006-0.476-2.073-0.92-3.203-1.336-0.268 1.286-0.427 2.497-0.436 3.354-0.01 1.009-1.047 0.855-0.874-0.574 0.131-1.089 0.369-2.111 0.619-3.027-1.111-0.386-2.279-0.744-3.507-1.067-0.769-0.201-1.016 0.27-0.978 0.281-0.084 1.61 16.968 22.086-0.43 50.598-3.162-8.658-16.451-0.228-26.554-24.293-0.159-0.38-0.491 0.082-0.735 0.615-0.539 1.175-0.979 2.337-1.334 3.483 1.109 0.377 2.602 0.934 3.691 1.519 1.207 0.645 0.769 1.583-0.023 1.042-0.783-0.537-2.42-1.241-3.877-1.811-0.428 1.522-0.708 3.014-0.837 4.454 1.7-0.172 4.234-0.208 6.447 0.031 1.668 0.178 1.452 1.285 0.304 1.033-1.502-0.332-4.343-0.374-6.8-0.26-0.094 1.65-1e-3 3.227 0.249 4.715 2.092-0.697 5.604-1.666 8.646-1.818 1.676-0.083 1.809 1.182 0.632 1.111-1.848-0.107-6.293 0.787-9.145 1.473 0.394 1.875 1.04 3.588 1.885 5.102 2.046-1.327 5.955-3.582 9.183-4.561 1.689-0.511 2.147 0.746 0.931 0.975-1.972 0.369-6.904 2.775-9.709 4.263 0.926 1.487 2.051 2.751 3.322 3.748 2.326-2.082 5.159-4.549 8.964-6.229 1.615-0.717 2.202 0.418 1.04 0.854-2.335 0.873-4.242 1.872-9.367 5.857 1.293 0.891 2.719 1.506 4.216 1.813 2.176-2.072 5.05-4.669 8.434-6.309 1.592-0.771 2.238 0.402 1.072 0.816-1.991 0.707-5.823 3.451-8.578 5.635 3.698 0.427 7.769-1.037 11.439-5.094 8.923 4.502 4.344 11.831-5.393 9.207-4.654-1.254-7.686 1.663-7.399 2.698 0.104 0.158 0.013 0.052 0.602-0.173 1.39-0.528 2.514-1.03 5.382-0.406 3.704 1.072 4.579 1.505 8.246 0.709-2.894 2.969-1.979 6.74 1.611 7.908 0.745 0.24 0.979-0.1-0.124-1.314-1.555-1.715-0.823-3.791 1.535-5.51 0.718 3.914 5.688 4.4 11.02 2.164 5.51-2.314 6.995-4.165 15.163-1.563 0.898 0.703 1.35 0.129 0.7-0.476-3.802-3.332-8.976-3.489-15.479-1.403-11.106 3.559-10.191-4.709 3.229-9.479 2.052 3.708 6.576 5.859 11.127 5.577-2.537-2.324-5.685-4.813-7.482-5.546-0.839-0.34-0.283-1.537 1.127-0.741 3.074 1.735 5.455 4.044 7.39 6.179 1.655-0.238 3.283-0.824 4.773-1.771-2.626-2.118-6.195-4.793-8.058-5.449-0.805-0.284-0.259-1.488 1.086-0.799 2.955 1.511 5.664 3.866 7.675 5.778 1.261-0.932 2.396-2.16 3.334-3.703-2.614-1.506-5.813-3.004-7.621-3.44-1.206-0.293-0.682-1.526 0.979-0.926 2.844 1.026 5.185 2.333 7.058 3.618 0.698-1.315 1.257-2.836 1.642-4.579-2.392-0.728-4.834-1.248-6.404-1.292-1.175-0.032-0.936-1.282 0.729-1.053 2.383 0.328 4.215 0.842 5.864 1.472 0.205-1.138 0.337-2.361 0.388-3.679-1.75 0.012-3.354 0.143-4.517 0.343-0.878 0.149-1.138-0.906 0.299-1.036m-27.24-28.142c-1.945-1.455-5.613-3.46-7.753-4.282-0.355 0.525-0.721 1.005-1.092 1.408-0.586 0.631-1.111 1.267-1.595 1.905 3.358 1.104 8.282 3.149 11.424 4.933-0.274-1.376-0.604-2.699-0.984-3.964m-0.564 21.996c0.998 0.062 1.309-0.524 1.566-1.847-3.096-1.736-9.42-4.263-13.628-5.324 2.157 4.019 6.521 6.834 12.062 7.171m-3.989-32.89c-0.271 0.759-0.58 1.536-0.912 2.304 0.761 0.396 1.831 0.908 2.698 1.418-0.59-1.29-1.196-2.531-1.786-3.722m-9.525 19.286c3.251 0.606 11.646 3.663 15.789 5.769 0.063-1.19 0.063-2.332 0.029-3.449-2.781-1.715-10.351-5.213-14.947-6.667-0.531 1.48-0.813 2.938-0.871 4.347m1.008 5.51c3.836 0.84 10.585 3.228 14.275 5.062 1e-3 -7e-3 1e-3 -0.012 3e-3 -0.019 0.188-1.202 0.311-2.354 0.401-3.486-2.885-1.598-11.271-5.21-15.693-6.2 0.042 1.644 0.392 3.209 1.014 4.643m11.029-19.434c-0.882-0.714-2.661-1.775-3.689-2.461-0.491 1.084-1.028 2.127-1.603 3.057 1.479 0.618 4.833 2.056 6.814 3.336-0.466-1.371-0.984-2.677-1.522-3.932m3.279 10.875c-2.394-1.487-8.514-4.333-12.118-5.706-0.867 1.235-1.55 2.471-2.057 3.701 3.392 0.938 10.74 3.843 14.622 6.01-0.084-1.389-0.238-2.723-0.447-4.005m-16.606 11.485c-1.319-0.474-2.646-0.721-3.771-0.852 0.037 3.303 0.749 10.965 1.429 13.683 0.775 0.422 1.544 0.778 2.303 1.09-0.563-7.195-0.287-10.611 0.039-13.921m4.139 2.643c-0.979-1.066-2.165-1.819-3.39-2.347-0.26 3.622-0.095 11.605 0.531 13.878 0.016 0.055 0.041 0.162 0.07 0.273 0.724 0.253 1.43 0.469 2.118 0.666-0.264-4.407 0.196-9.17 0.671-12.47m-15.421-4.017c0.24 1.407 0.909 5.88 1.727 8.098 0.757 0.925 1.518 1.75 2.277 2.479-0.591-2.975-1.087-8.637-1.201-10.334-0.886-0.056-1.865-0.135-2.803-0.243m16.089 4.844c-0.335 3.436-0.536 9.412-0.137 12.01 0.528 0.112 1.082 0.121 1.188-0.313 1.41-5.655 0.646-9.314-1.051-11.697m-9.303-4.394c-0.568-0.047-1.066-0.068-1.447-0.082-0.438-0.015-1.081-0.041-1.826-0.082 0.298 2.417 0.899 8.716 1.948 11.579 0.72 0.587 1.437 1.104 2.148 1.557-0.729-4.549-0.887-9.831-0.823-12.972m-10.467-1.243c1.339 2.878 2.728 5.254 4.14 7.229-0.419-1.491-0.854-5.228-1.082-6.515-1.265-0.169-2.399-0.398-3.058-0.714" fill="#67cb33"/>
  </g>
 </g>
</svg>
