<?xml version="1.0" encoding="UTF-8"?>
<svg xmlns="http://www.w3.org/2000/svg" viewBox="0 0 192.93 172.27">
  <g id="car">
    <g id="Ebene_13" data-name="Ebene 13">
      <path d="m102.57,151.14s-16.22,4.51-6.31,11.72c0,0,18.93,11.72,50.47,9.01l11.72-1.8s19.83-3.61,23.43-9.91v-10.42l-79.31,1.41Z"/>
    </g>
    <g id="Ebene_14" data-name="Ebene 14">
      <path d="m156.65,161.05l.9,8.11s0,3.61,8.11,1.8c0,0-2.14-6.31-1.07-13.52,0,0-.73,11.69,1.97,12.62,0,0,2.7,1.8,4.51-4.51,0,0,1.8-9.01,1.8-9.91s-.9-.9-.9-.9c0,0,4.29-18.85-4.51-18.03,0,0-9.91,0-9.24,14.87l-1.58,9.46Z"/>
      <path d="m180.99,152.04l1.8,8.11s.9,1.8,3.61,0c0,0-2.64-6.31-1.77-8.11,0,0,.87,8.11,2.67,8.11,0,0,4.47-.9,3.59-9.91,0,0,.21-3.89.12-5.1l.8-1.21s0-8.11-3.61-6.38c0,0-6.31,3.68-4.51,12.69l-2.7,1.8Z"/>
      <ellipse cx="169.27" cy="157.9" rx="1.8" ry="7.66" fill="#fff"/>
      <ellipse cx="188.2" cy="151.59" rx="1.8" ry="5.86" fill="#fff"/>
    </g>
    <g id="Ebene_2" data-name="Ebene 2">
      <path d="m98.07,141.22s-2.7-8.22,0-15.32c0,0,3.61.9,5.41-5.41,0,0,1.8-7.21-2.7-10.82,0,0,6.31-.05,10.82,4.03l8.11-3.13s.9-15.32,17.12-21.63c0,0,16.22-4.51,30.64,4.51,0,0,9.91-2.7,14.42,27.04,0,0,2.7,4.51,7.21,7.21,0,0,.9.9.9,5.41,0,0,2.7,1.87,2.7,3.64,0,0,.9,4.47-.9,7.17,0,0,0-9.01-4.51-5.41,0,0-3.61,3.61-3.61,11.72,0,0-6.31,6.31-11.72,4.51,0,0,3.61-17.12-4.51-17.12,0,0-9.01-2.7-9.01,14.42,0,0-16.22,4.51-24.33,1.8,0,0-25.24-2.7-36.05-12.62Z" fill="#00ada7"/>
    </g>
    <g id="Ebene_3" data-name="Ebene 3">
      <path d="m121.5,111.48s-.07-13.89,13-20.4c.33-.16.69-.27,1.06-.31,3.15-.39,18.63-1.92,26.87,4.08.6.44,1.02,1.09,1.2,1.81.51,2.12.56,7.2-3.46,18.84-.47,1.36-1.78,2.24-3.22,2.16-8.45-.48-36.21-2.36-35.45-6.18Z" fill="#fff"/>
      <path d="m165.75,117.96c.22-3.9.91-13.78,2.52-18.42.56-1.6,2.55-2.1,3.78-.95,2.96,2.77,8.26,9.39,7.27,20.71-.11,1.22-1.16,2.14-2.38,2.1-2.55-.09-6.81-.35-9.48-1.08-1.06-.29-1.77-1.27-1.71-2.36Z" fill="#fff"/>
    </g>
    <g id="Ebene_4" data-name="Ebene 4">
      <path d="m159.36,149.33s4.11,3.13-14.18,5.13c-.57.06-1.15.08-1.72.05-5.06-.25-30.32-2.08-45.54-13.77,0,0,.16-2.22-2.73.96-.65.72-.54,1.88-.09,2.74,2.24,4.29,11.6,16.91,44.44,18.41,0,0,17.12.9,21.63-4.51,0,0,6.31-6.31-1.8-9.01Z" fill="#cad3d3"/>
    </g>
    <g id="Ebene_5" data-name="Ebene 5">
      <path d="m101.67,144.83l-.58,10.24s17.7,9.59,22.21,9.59l.9-10.82s-21.63-7.21-22.53-9.01Z" fill="#cad3d3" stroke="#1c1f1f" stroke-miterlimit="10" stroke-width=".25"/>
    </g>
    <g id="Ebene_6" data-name="Ebene 6">
      <g id="Ebene_2-2" data-name="Ebene 2">
        <path d="m110.76,157.97c1.66.58,3.47-.27,4.05-1.92s-.3-3.45-1.96-4.03c-1.66-.58-3.47.27-4.05,1.92s.3,3.45,1.95,4.03Z" fill="#fff"/>
        <path d="m112.44,153.27c.09.03.17.05.23.07.12.04.21.09.27.13.14.1.22.21.25.34.03.13.02.26-.03.39-.05.14-.14.26-.27.33-.1.06-.11.06-.17-.03-.02-.03-.12-.19-.11-.23-.06.42-.37.8-.78.94.47.03.93.2,1.32.47-.01-.06-.07-.21-.03-.26.02-.04.15-.07.19-.09.17-.09.31-.21.43-.36.12-.15.21-.3.27-.48.13-.37.14-.71.04-1.02-.11-.31-.34-.56-.7-.76-.1-.05-.22-.11-.36-.16-.11-.04-.22-.07-.32-.11-.2-.07-.36-.04-.57-.02.06.08.12.16.17.25.04.06.08.13.08.2,0,.09-.05.17-.12.22s-.26-.05-.35-.02c.11-.04.41.12.57.17h0Z" fill="#00ada7"/>
        <path d="m110.55,156.25c.11-.26.19-.52.29-.78.08-.23.33-.35.57-.27l.18.06c.16.06.27.19.29.35.04.25.07.5.11.75.02.16.04.32.07.48.02.1.05.15-.02.24s-.18.15-.28.15c.35.12.67.32.93.59-.03-.03.21-.35.24-.38.09-.12.2-.23.31-.35-.07.07-.22.03-.27-.04-.03-.05-.02-.15-.02-.21,0-.08-.01-.16-.02-.25-.04-.41-.12-.81-.15-1.22-.02-.16-.02-.33-.06-.49-.02-.05-.04-.11-.09-.15-.05-.04-.12-.05-.18-.07-.08-.03-.17-.06-.25-.08-.17-.06-.34-.12-.51-.18l-.15-.05c-.15-.05-.22-.21-.17-.35l.25-.71c.05-.14.22-.24.36-.19.06.02.19.05.24.1.06.05.08.21.1.29.14-.21.24-.26.4-.39.04-.03.24-.15.25-.2.02-.1-.21-.36-.26-.45-.07-.12-.15-.24-.22-.36-.02.09-.1.24-.2.25-.07,0-.21-.07-.28-.09l-.27-.09c-.08-.03-.17-.07-.26-.08-.12-.02-.26.01-.35.09-.06.05-.11.12-.14.19l-.71,2-.37,1.06c-.13.38-.29.76-.44,1.14-.04.09-.05.15.02.23.06.06.29-.16.35-.11.09.07.05.41.17.39.15-.02.24-.22.3-.34.09-.16.17-.33.24-.51h0Z" fill="#1c1f1f"/>
        <path d="m112.55,153.31c.09.03.05.02.12.04.12.04.21.09.27.13.14.1.22.21.25.34.03.13.02.26-.03.39-.05.14-.14.26-.27.33-.1.06-.11.06-.17-.03-.02-.03-.12-.19-.11-.23-.06.42-.37.8-.77.94.47.03.93.2,1.32.47-.01-.06-.07-.21-.03-.26.02-.04.15-.07.19-.09.17-.09.31-.21.43-.36.12-.15.21-.3.27-.48.13-.37.14-.71.04-1.02-.11-.31-.34-.56-.7-.76-.1-.05-.17.18-.32.13" fill="#00ada7"/>
      </g>
      <g id="Ebene_1" data-name="Ebene 1">
        <path d="m105.11,154.28c-.21-.07-.38-.17-.53-.31-.15-.13-.26-.29-.34-.47-.08-.17-.13-.37-.14-.57-.01-.2.02-.41.1-.62s.18-.39.31-.55.29-.27.46-.36c.18-.09.36-.13.56-.14s.4.02.61.09.38.17.52.3c.14.13.25.27.32.42.07.15.11.3.11.46l-.55.05c0-.16-.05-.31-.15-.45-.1-.14-.23-.24-.42-.3s-.35-.08-.52-.04-.31.11-.44.23-.22.28-.29.48-.09.39-.07.56c.02.18.09.33.2.46.11.13.25.23.43.29s.35.07.52.02.29-.13.4-.26l.39.38c-.1.12-.22.21-.37.29s-.32.11-.51.13c-.19,0-.38-.02-.59-.1Z" fill="#1c1f1f"/>
        <path d="m106.52,154.72l1.99-2.49.68.24v3.19s-.58-.2-.58-.2v-.68s-1.1-.39-1.1-.39l-.42.54-.57-.2Zm1.3-.74l.81.29.02-1.58.15.05-.98,1.25Z" fill="#1c1f1f"/>
        <path d="m113.85,157.31l1-2.84.53.19-1,2.84-.53-.19Z" fill="#00ada7"/>
        <path d="m114.93,157.69l1-2.84.94.33c.3.11.54.26.73.46.18.2.3.43.35.68.05.26.02.52-.07.8s-.25.5-.45.67c-.2.17-.43.28-.7.32-.27.04-.55,0-.85-.1l-.94-.33h0Zm.68-.27l.42.15c.2.07.38.09.55.06.17-.03.32-.1.45-.22.13-.12.23-.27.3-.47s.09-.38.06-.55c-.03-.17-.1-.32-.22-.45s-.27-.23-.47-.3l-.42-.15-.68,1.93h0Z" fill="#00ada7"/>
        <path d="m117.42,158.57l1.99-2.49.68.24v3.19s-.58-.2-.58-.2v-.68s-1.1-.39-1.1-.39l-.42.54-.57-.2Zm1.3-.74l.81.29.02-1.58.15.05-.98,1.25Z" fill="#00ada7"/>
      </g>
    </g>
    <g id="Ebene_7" data-name="Ebene 7">
      <path d="m139.53,137.62s-6.31-2.7-2.7-14.42c0,0,1.8-9.01,10.82-7.21,0,0,11.42.88,7.37,13.91-.12.39-.28.77-.46,1.13-1.25,2.47-6.45,11.27-15.03,6.59Z" fill="#cad3d3"/>
      <path d="m95.64,125.81s-4.35-1.24-3.61-10.18c0,0-.05-6.76,5.89-6.48,0,0,7.34-.67,6.5,9.27-.02.3-.07.59-.14.87-.47,1.94-2.59,8.94-8.63,6.52Z" fill="#cad3d3"/>
    </g>
    <g id="Ebene_8" data-name="Ebene 8">
      <path d="m142.23,118.56s-6.21,4-4.22,11.79c.42,1.65,1.36,3.16,2.8,4.06,1.52.95,3.82,1.5,6.91-.18,1.22-.66,2.21-1.7,2.83-2.95.7-1.42,1.52-3.61,1.7-6.41.16-2.44-.88-4.84-2.91-6.21-1.81-1.23-4.34-2.01-7.11-.1Z" fill="#fff"/>
      <path d="m92.91,112.6s-2.4,4.57,1.42,9.25c.81.99,1.88,1.74,3.05,1.92,1.23.19,2.81-.12,4.1-2.18.51-.82.76-1.81.71-2.84-.05-1.17-.3-2.9-1.13-4.85-.72-1.71-2.16-3.02-3.84-3.35-1.5-.29-3.29-.07-4.32,2.05Z" fill="#fff"/>
    </g>
    <g id="Ebene_9" data-name="Ebene 9">
      <circle cx="144.93" cy="122.3" r="4.51" fill="#1c1f1f" stroke="#1c1f1f" stroke-miterlimit="10" stroke-width=".1"/>
      <circle cx="95.81" cy="113.73" r="3.15" fill="#1c1f1f" stroke="#1c1f1f" stroke-miterlimit="10" stroke-width=".1"/>
    </g>
    <g id="Ebene_10" data-name="Ebene 10">
      <circle cx="143.58" cy="120.04" r="1.35" fill="#fff" stroke="#1c1f1f" stroke-miterlimit="10" stroke-width=".1"/>
      <circle cx="95.81" cy="112.83" r="1.35" fill="#fff" stroke="#1c1f1f" stroke-miterlimit="10" stroke-width=".1"/>
    </g>
    <g id="Ebene_11" data-name="Ebene 11">
      <path d="m103.48,127.7s10.82,17.12,31.54,7.21c0,0-5.19,10.38-14.19,12.23-4.13.85-8.36-.62-11.42-3.51-3.21-3.02-7.02-8.33-5.93-15.93Z" fill="#1c1f1f" stroke="#1c1f1f" stroke-miterlimit="10" stroke-width=".1"/>
    </g>
    <g id="Ebene_12" data-name="Ebene 12">
      <path d="m106.18,132.21s0,4.51.9,5.41,7.21,5.41,12.62,4.51,9.91-2.7,10.82-4.51c0,0-15.32,2.7-19.83-1.8l-4.51-3.61Z" fill="#fff"/>
    </g>
  </g>
  <g id="Ebene_16" data-name="Ebene 16">
    <path d="m59.68,113.82l26,13,3-21s81-70,1.91-102.02C63.71-7.08,32.87,7.76,11.89,27.77-11.45,50.05-2.32,119.82,59.68,113.82Z" fill="#1c1f1f" stroke="#1c1f1f" stroke-miterlimit="10" stroke-width=".25"/>
  </g>
  <g id="Ebene_17" data-name="Ebene 17">
    <text transform="translate(22.22 39.62)" fill="#fff" font-family="MyriadPro-Regular, &apos;Myriad Pro&apos;" font-size="11"><tspan x="0" y="0">Sie haben aktuell </tspan><tspan x="0" y="13.2">noch keine </tspan><tspan x="52.7" y="13.2" letter-spacing="-.05em">F</tspan><tspan x="57.56" y="13.2" letter-spacing="0em">ah</tspan><tspan x="68.97" y="13.2" letter-spacing=".02em">r</tspan><tspan x="72.83" y="13.2" letter-spacing="0em">t</tspan><tspan x="76.41" y="13.2">en </tspan><tspan x="0" y="26.4">hinzugefüg</tspan><tspan x="52.63" y="26.4" letter-spacing="0em">t</tspan><tspan x="56.24" y="26.4">, </tspan><tspan x="0" y="39.6">oder gebuc</tspan><tspan x="52.59" y="39.6" letter-spacing="0em">h</tspan><tspan x="58.65" y="39.6" letter-spacing="0em">t!</tspan></text>
  </g>
</svg>