<svg width="390" height="844" viewBox="0 0 390 844" fill="none" xmlns="http://www.w3.org/2000/svg">
<g clip-path="url(#clip0_926_2124)">
<rect width="390" height="844" fill="white"/>
<path d="M260.5 179.5C239.592 51 322.5 39 446.5 48L383 -33.5H187.5L-33 -4V73L-39.5 268.5C-58.5 383.5 126.5 632.427 271 530.5C369 461.373 284.5 327 260.5 179.5Z" fill="#DCDFE0"/>
<path d="M166.425 354.872L296 322.5L270.5 228.5C260.989 222.931 240.394 222.638 227.255 217.042C214.115 211.446 194.783 215.312 186.76 217.945C167.569 229.959 128.457 256.026 125.54 264.189C122.622 272.351 131.322 311.367 136.037 329.855L166.425 354.872Z" fill="#B9D8A2"/>
<path d="M61.5063 275.895L106.699 269.074C108.822 268.753 110.82 270.167 111.224 272.276L124.207 339.974C124.396 340.955 124.945 341.831 125.747 342.428L140.804 353.641C143.581 355.709 142.598 360.088 139.205 360.771L77.5652 373.182C75.3441 373.629 73.1954 372.144 72.8285 369.908L58.1561 280.498C57.7951 278.298 59.3021 276.228 61.5063 275.895Z" fill="#B9D8A2"/>
<path d="M-7.47014 292.743L43.1491 280.088C45.4674 279.508 47.7733 281.077 48.0851 283.446L59.554 370.611C59.8108 372.562 58.6095 374.411 56.7216 374.969L38.5548 380.336C38.1869 380.445 37.8052 380.5 37.4215 380.5H-6.5C-8.70914 380.5 -10.5 378.709 -10.5 376.5V296.623C-10.5 294.788 -9.25081 293.188 -7.47014 292.743Z" fill="#B9D8A2"/>
<path d="M112.493 258.166L-8.66425 278.121C-11.3173 278.558 -13.6373 276.305 -13.2786 273.641L-10.9277 256.177C-10.6778 254.321 -9.17236 252.886 -7.30559 252.726L104.796 243.103C105.581 243.036 106.329 242.738 106.945 242.247L159.301 200.556C159.761 200.19 160.297 199.93 160.869 199.794L254.756 177.507C257.038 176.966 259.294 178.495 259.637 180.815L262.332 199.082C262.813 202.344 259.364 204.755 256.466 203.182L247.087 198.09C246.379 197.706 245.571 197.544 244.77 197.626L207.519 201.447C207.174 201.482 206.836 201.562 206.512 201.684L166.568 216.785C166.192 216.928 165.839 217.126 165.521 217.374L114.305 257.372C113.777 257.784 113.154 258.057 112.493 258.166Z" fill="#B9D8A2"/>
<path d="M61.5063 275.895L106.699 269.074C108.822 268.753 110.82 270.167 111.224 272.276L124.207 339.974C124.396 340.955 124.945 341.831 125.747 342.428L140.804 353.641C143.581 355.709 142.598 360.088 139.205 360.771L77.5652 373.182C75.3441 373.629 73.1954 372.144 72.8285 369.908L58.1561 280.498C57.7951 278.298 59.3021 276.228 61.5063 275.895Z" stroke="black"/>
<path d="M-7.47014 292.743L43.1491 280.088C45.4674 279.508 47.7733 281.077 48.0851 283.446L59.554 370.611C59.8108 372.562 58.6095 374.411 56.7216 374.969L38.5548 380.336C38.1869 380.445 37.8052 380.5 37.4215 380.5H-6.5C-8.70914 380.5 -10.5 378.709 -10.5 376.5V296.623C-10.5 294.788 -9.25081 293.188 -7.47014 292.743Z" stroke="black"/>
<path d="M112.493 258.166L-8.66425 278.121C-11.3173 278.558 -13.6373 276.305 -13.2786 273.641L-10.9277 256.177C-10.6778 254.321 -9.17236 252.886 -7.30559 252.726L104.796 243.103C105.581 243.036 106.329 242.738 106.945 242.247L159.301 200.556C159.761 200.19 160.297 199.93 160.869 199.794L254.756 177.507C257.038 176.966 259.294 178.495 259.637 180.815L262.332 199.082C262.813 202.344 259.364 204.755 256.466 203.182L247.087 198.09C246.379 197.706 245.571 197.544 244.77 197.626L207.519 201.447C207.174 201.482 206.836 201.562 206.512 201.684L166.568 216.785C166.192 216.928 165.839 217.126 165.521 217.374L114.305 257.372C113.777 257.784 113.154 258.057 112.493 258.166Z" stroke="black"/>
<path d="M290 159.5C290 72 361.5 72 390 72V844H-2V442C2.83333 458.5 16 491.851 67.5 535C104.5 566 186.544 600.422 263.5 564C329 533 352.508 477.426 343.5 403.5C329 284.5 290 243 290 159.5Z" fill="#00ADA7"/>
<path d="M21.0699 140H29.7739V120.864H49.9979V113.184H29.7739V100H52.8779V92.32H21.0699V140ZM51.4784 140H60.8864L64.3424 129.76H82.7744L86.1664 140H95.6384L79.1904 92.32H67.9264L51.4784 140ZM66.8384 122.08L73.5584 101.984L80.2784 122.08H66.8384ZM100.945 140H109.649V120.8H129.937V140H138.705V92.32H129.937V113.12H109.649V92.32H100.945V140ZM147.882 140H156.586V122.4H164.778L174.634 140H184.49L173.546 120.864C176.192 119.755 178.282 118.048 179.818 115.744C181.397 113.44 182.186 110.645 182.186 107.36C182.186 104.117 181.482 101.387 180.074 99.168C178.666 96.9493 176.704 95.264 174.186 94.112C171.712 92.9173 168.853 92.32 165.61 92.32H147.882V140ZM156.586 114.72V100H165.738C168.085 100 169.962 100.661 171.37 101.984C172.778 103.307 173.482 105.099 173.482 107.36C173.482 109.579 172.778 111.371 171.37 112.736C169.962 114.059 168.085 114.72 165.738 114.72H156.586ZM190.195 140H221.875V132.32H198.899V119.904H220.595V112.224H198.899V100H221.875V92.32H190.195V140ZM21.6552 167H23.2552V160.28H30.2552V158.78H23.2552V153.6H30.8552V152.1H21.6552V167ZM39.1063 167.24C40.173 167.24 41.0997 167.02 41.8863 166.58C42.6863 166.14 43.3063 165.54 43.7463 164.78C44.1863 164.007 44.4063 163.127 44.4063 162.14V152.1H42.8063V162.14C42.8063 163.22 42.4663 164.093 41.7863 164.76C41.1063 165.413 40.213 165.74 39.1063 165.74C38.013 165.74 37.1197 165.413 36.4263 164.76C35.7463 164.093 35.4063 163.22 35.4063 162.14V152.1H33.8063V162.14C33.8063 163.127 34.0263 164.007 34.4663 164.78C34.9063 165.54 35.5263 166.14 36.3263 166.58C37.1263 167.02 38.053 167.24 39.1063 167.24ZM36.3063 150.02H38.3063V148.02H36.3063V150.02ZM39.9063 150.02H41.9063V148.02H39.9063V150.02ZM48.4602 167H50.0602V161.2H53.7002L56.9802 167H58.8602L55.3802 160.94C56.3269 160.633 57.0736 160.107 57.6202 159.36C58.1802 158.613 58.4602 157.713 58.4602 156.66C58.4602 155.753 58.2536 154.96 57.8402 154.28C57.4402 153.587 56.8736 153.053 56.1402 152.68C55.4069 152.293 54.5536 152.1 53.5802 152.1H48.4602V167ZM50.0602 159.7V153.6H53.6602C54.6202 153.6 55.3936 153.873 55.9802 154.42C56.5669 154.953 56.8602 155.693 56.8602 156.64C56.8602 157.587 56.5669 158.333 55.9802 158.88C55.3936 159.427 54.6202 159.7 53.6602 159.7H50.0602ZM65.8512 167H70.7512C72.2312 167 73.5178 166.693 74.6112 166.08C75.7045 165.467 76.5512 164.6 77.1512 163.48C77.7512 162.36 78.0512 161.047 78.0512 159.54C78.0512 158.02 77.7512 156.707 77.1512 155.6C76.5512 154.48 75.7045 153.62 74.6112 153.02C73.5178 152.407 72.2312 152.1 70.7512 152.1H65.8512V167ZM67.4512 165.5V153.6H70.7512C71.8845 153.6 72.8712 153.847 73.7112 154.34C74.5512 154.82 75.2045 155.507 75.6712 156.4C76.1378 157.28 76.3712 158.327 76.3712 159.54C76.3712 160.753 76.1378 161.807 75.6712 162.7C75.2178 163.593 74.5712 164.287 73.7312 164.78C72.8912 165.26 71.8978 165.5 70.7512 165.5H67.4512ZM81.2849 167H90.8849V165.5H82.8849V160.28H90.4849V158.78H82.8849V153.6H90.8849V152.1H81.2849V167ZM94.121 167H95.721V152.1H94.121V167ZM99.8282 167H101.428V155.16L109.628 167H111.028V152.1H109.428V163.86L101.228 152.1H99.8282V167ZM115.145 167H124.745V165.5H116.745V160.28H124.345V158.78H116.745V153.6H124.745V152.1H115.145V167ZM130.649 167H141.449V165.5H132.769L141.269 153.18V152.1H131.149V153.6H139.169L130.649 165.92V167ZM149.479 167.24C150.546 167.24 151.472 167.02 152.259 166.58C153.059 166.14 153.679 165.54 154.119 164.78C154.559 164.007 154.779 163.127 154.779 162.14V152.1H153.179V162.14C153.179 163.22 152.839 164.093 152.159 164.76C151.479 165.413 150.586 165.74 149.479 165.74C148.386 165.74 147.492 165.413 146.799 164.76C146.119 164.093 145.779 163.22 145.779 162.14V152.1H144.179V162.14C144.179 163.127 144.399 164.007 144.839 164.78C145.279 165.54 145.899 166.14 146.699 166.58C147.499 167.02 148.426 167.24 149.479 167.24ZM158.833 167H160.433V162.5L162.933 159.66L168.013 167H169.933L164.033 158.4L169.573 152.1H167.573L160.433 160.22V152.1H158.833V167ZM177.749 167.24C178.815 167.24 179.742 167.02 180.529 166.58C181.329 166.14 181.949 165.54 182.389 164.78C182.829 164.007 183.049 163.127 183.049 162.14V152.1H181.449V162.14C181.449 163.22 181.109 164.093 180.429 164.76C179.749 165.413 178.855 165.74 177.749 165.74C176.655 165.74 175.762 165.413 175.069 164.76C174.389 164.093 174.049 163.22 174.049 162.14V152.1H172.449V162.14C172.449 163.127 172.669 164.007 173.109 164.78C173.549 165.54 174.169 166.14 174.969 166.58C175.769 167.02 176.695 167.24 177.749 167.24ZM187.103 167H188.703V155.16L196.903 167H198.303V152.1H196.703V163.86L188.503 152.1H187.103V167ZM202.419 167H204.019V160.28H211.019V158.78H204.019V153.6H211.619V152.1H202.419V167ZM217.21 167H218.81V153.6H222.89V152.1H213.09V153.6H217.21V167Z" fill="#2F3E46"/>
</g>
<defs>
<clipPath id="clip0_926_2124">
<rect width="390" height="844" fill="white"/>
</clipPath>
</defs>
</svg>
