<svg width="647" height="341" viewBox="0 0 647 341" fill="none" xmlns="http://www.w3.org/2000/svg">
<path d="M304.89 234.587C370.32 234.587 423.362 182.073 423.362 117.293C423.362 52.514 370.32 0 304.89 0C239.46 0 186.419 52.514 186.419 117.293C186.419 182.073 239.46 234.587 304.89 234.587Z" fill="white"/>
<path d="M305.536 49.3077C308.933 49.0634 312.16 49.0447 314.589 49.0447C319.201 49.0447 322.94 49.4393 325.768 50.2473C331.842 51.8445 336.169 54.8699 338.712 59.2669C341.275 63.6828 342.546 68.3806 342.546 73.3414C342.546 78.8471 340.762 84.2402 337.08 88.4118C334.195 91.6626 333.891 91.6814 330.646 89.3701C329.374 88.4681 324.155 84.2026 323.908 82.7745C326.926 98.3146 320.739 115.283 308.364 125.336C325.294 120.713 343.495 120.713 360.425 125.336C359.362 123.438 355.566 118.74 356.003 116.636C356.307 115.17 360.463 112.483 361.564 111.262C366.385 105.887 369.972 99.9118 372.325 93.335C374.679 86.7581 375.856 80.0874 375.856 73.3602C375.856 58.8348 372.098 46.8085 364.62 37.2439C357.123 27.6981 345.792 21.7601 330.646 19.4301C326.508 18.7912 321.65 18.4717 316.051 18.4717C311.78 18.4717 307.491 18.5469 303.201 18.4717C295.382 18.3402 290.105 21.5159 283.045 24.917C286.214 26.9465 289.27 29.1262 292.212 31.4751C294.338 33.1851 296.501 35.1017 297.431 37.6573C298.532 40.6827 297.678 44.1402 295.97 46.8649C294.262 49.5896 286.044 48.3306 283.595 50.454C287.068 47.4474 299.424 49.7399 305.517 49.3077H305.536Z" fill="#FF5353"/>
<path d="M276.231 177.049C276.781 166.789 276.668 156.473 276.668 146.25C276.668 137.212 284.089 129.883 293.237 129.883H300.183C306.352 129.883 312.008 133.284 314.855 138.715C319.22 147.039 323.585 155.364 327.951 163.707C330.741 169.044 333.36 174.549 336.378 179.773C338.276 183.062 339.832 184.565 338.674 188.474C337.517 192.382 334.29 195.746 330.608 197.305C344.387 197.136 358.204 200.312 370.484 206.494C369.27 205.874 373.616 191.781 374.09 190.24C375.818 184.715 378.399 179.548 380.619 174.286C379.177 177.706 373.122 178.12 370.636 176.072C368.814 174.587 368.226 171.167 367.334 169.081C366.138 166.263 364.885 163.444 363.595 160.663C357.142 146.833 349.531 133.529 343.059 119.699C340.496 114.174 338.257 108.405 334.764 103.35C333.569 101.622 331.936 100.006 329.925 99.254C327.704 98.446 325.142 99.0285 322.845 99.0661C319.524 99.1412 316.221 99.1976 312.9 99.2164C306.276 99.2915 299.633 99.2915 293.009 99.2915H287.163C281.393 99.2915 276.724 94.669 276.724 88.9565V61.0331C276.724 55.3206 281.469 50.078 287.258 50.078C289.783 50.0028 294.546 49.5142 296.843 50.5853C299.5 51.8255 302.195 57.0682 304.017 59.3607C306.238 50.3222 309.313 47.2405 313.26 40.6637C314.247 39.0289 319.827 32.2829 319.543 30.4038C319.011 26.7583 307.699 20.313 304.814 18.0017C300.753 14.7133 296.672 11.4249 292.61 8.15527C293.085 11.5377 292.117 17.8514 288.606 19.599C286.309 20.7264 280.369 19.7681 277.73 19.8245L267.329 20.05C264.084 20.1251 260.535 19.8057 257.365 20.3506C252.715 21.1586 248.54 23.9961 246.072 27.9798C244.497 30.5353 243.643 33.5231 243.643 36.5297C243.643 62.837 243.643 89.1256 243.643 115.433C243.643 129.282 243.643 143.15 243.643 156.999C243.643 172.144 242.732 187.29 242.105 202.435C241.954 206.137 242.143 208.486 245.674 210.121C248.483 211.436 253.854 201.045 256.758 202.041C260.781 203.431 263.439 215.796 267.519 213.71C272.492 211.154 273.099 203.018 273.953 198.245C275.206 191.255 275.889 184.152 276.269 177.067L276.231 177.049Z" fill="#2F3E46"/>
<path d="M310.072 49.0821C313.469 48.8379 312.16 49.0258 314.589 49.0258C319.201 49.0258 322.94 49.4204 325.768 50.2284C331.842 51.8256 336.169 54.851 338.712 59.2481C341.275 63.6639 342.546 68.3617 342.546 73.3225C342.546 78.8283 340.762 84.2213 337.08 88.3929C334.195 91.6437 333.891 91.6625 330.646 89.3512C329.374 88.4492 324.155 84.1837 323.908 82.7556C326.926 98.2957 320.738 115.264 308.364 125.317C325.294 120.695 343.495 120.695 360.425 125.317C359.362 123.419 355.566 118.722 356.003 116.617C356.306 115.151 360.463 112.464 361.564 111.243C366.385 105.868 369.972 99.893 372.325 93.3161C374.679 86.7393 375.856 80.0685 375.856 73.3413C375.856 58.8159 372.098 46.7896 364.62 37.225C357.123 27.6792 345.792 21.7413 330.646 19.4112C326.508 18.7723 326.85 27.9799 321.251 27.9799" fill="#FF5353"/>
<path d="M57.11 172.839C49.0057 172.839 41.5466 171.393 34.7139 168.48C27.8812 165.567 21.9026 161.508 16.7971 156.303C11.6915 151.098 7.70578 144.972 4.8778 137.963C2.04982 130.954 0.626343 123.288 0.626343 114.963C0.626343 106.639 2.01186 98.9533 4.80188 91.8879C7.5919 84.8225 11.5397 78.7154 16.6452 73.5479C21.7508 68.3804 27.7484 64.3779 34.638 61.5217C41.5277 58.6654 49.0057 57.2373 57.11 57.2373C65.2144 57.2373 72.4646 58.5903 78.8987 61.2962C85.3329 64.0021 90.7611 67.5911 95.2213 72.0446C99.6815 76.4981 102.87 81.3837 104.787 86.7016L86.2629 95.2703C84.1371 89.6518 80.55 85.0292 75.4824 81.3649C70.4148 77.7007 64.3033 75.878 57.11 75.878C49.9167 75.878 43.7673 77.5316 38.358 80.8388C32.9488 84.146 28.7353 88.7122 25.7555 94.5186C22.7757 100.325 21.2763 107.146 21.2763 114.963C21.2763 122.78 22.7757 129.62 25.7555 135.483C28.7353 141.346 32.9488 145.931 38.358 149.238C43.7673 152.545 50.0306 154.199 57.11 154.199C64.1895 154.199 70.4148 152.376 75.4824 148.712C80.55 145.048 84.1371 140.425 86.2629 134.806L104.787 143.375C102.87 148.693 99.6815 153.579 95.2213 158.032C90.7611 162.486 85.3329 166.075 78.8987 168.781C72.4646 171.486 65.2144 172.839 57.11 172.839Z" fill="#2F3E46"/>
<path d="M112.208 171.035L151.23 59.041H177.954L216.976 171.035H194.504L186.457 146.983H142.728L134.528 171.035H112.208ZM148.649 128.943H180.535L161.707 73.1718H167.477L148.649 128.943Z" fill="#2F3E46"/>
<path d="M401.231 171.035V59.041H421.881V171.035H401.231V171.035Z" fill="#FF5353"/>
<path d="M443.594 171.035V59.041H480.491C492.429 59.041 502.83 61.4275 511.694 66.1816C520.557 70.9357 527.409 77.5126 532.268 85.8745C537.126 94.2365 539.556 103.933 539.556 114.963C539.556 125.993 537.126 135.577 532.268 144.051C527.409 152.526 520.557 159.141 511.694 163.895C502.83 168.649 492.429 171.035 480.491 171.035H443.594V171.035ZM464.244 152.996H480.946C488.633 152.996 495.295 151.418 500.913 148.261C506.531 145.104 510.915 140.688 514.047 135.032C517.179 129.376 518.754 122.686 518.754 114.963C518.754 107.24 517.179 100.438 514.047 94.819C510.915 89.2005 506.531 84.841 500.913 81.7405C495.295 78.64 488.633 77.0804 480.946 77.0804H464.244V152.996Z" fill="#FF5353"/>
<path d="M542.137 171.035L581.159 59.041H607.883L646.905 171.035H624.433L616.386 146.983H572.656L564.457 171.035H542.137ZM578.578 128.943H610.464L591.636 73.1718H597.406L578.578 128.943Z" fill="#FF5353"/>
<path d="M8.90149 323.731V284.872H0V277.186H8.90149V273.898C8.90149 270.553 9.6417 267.734 11.1031 265.442C12.5646 263.149 14.5195 261.383 16.9679 260.18C19.4163 258.978 22.1304 258.357 25.1292 258.357C25.7555 258.357 26.4767 258.395 27.2549 258.489C28.0331 258.583 28.6784 258.677 29.1908 258.79V265.949C28.7353 265.836 28.1849 265.761 27.5396 265.742C26.9133 265.705 26.4198 265.705 26.0781 265.705C23.421 265.705 21.2573 266.344 19.5491 267.603C17.8409 268.862 17.0058 270.966 17.0058 273.898V277.186H28.071V284.872H17.0058V323.731H8.90149V323.731Z" fill="#FF5353"/>
<path d="M75.5013 324.765C71.0031 324.765 66.9414 323.713 63.3163 321.608C59.6912 319.503 56.8063 316.61 54.6805 312.927C52.5548 309.244 51.4919 305.072 51.4919 300.412C51.4919 295.752 52.5358 291.599 54.6426 287.972C56.7493 284.345 59.6153 281.47 63.2404 279.328C66.8655 277.205 70.9651 276.134 75.5013 276.134C80.0375 276.134 84.0612 277.186 87.6863 279.291C91.3114 281.395 94.1774 284.251 96.2841 287.878C98.3908 291.505 99.4347 295.676 99.4347 300.393C99.4347 305.109 98.3339 309.3 96.1512 312.964C93.9686 316.628 91.0647 319.503 87.4775 321.608C83.8903 323.713 79.8856 324.765 75.5203 324.765H75.5013ZM75.5013 316.985C78.3862 316.985 80.9864 316.271 83.321 314.824C85.6555 313.378 87.4965 311.404 88.8441 308.868C90.1916 306.331 90.8749 303.512 90.8749 300.412C90.8749 297.311 90.1916 294.436 88.8441 291.993C87.4965 289.551 85.6555 287.596 83.321 286.112C80.9864 284.627 78.3862 283.913 75.5013 283.913C72.6164 283.913 69.9213 284.646 67.6057 286.112C65.2902 287.577 63.4112 289.532 62.0257 291.993C60.6402 294.436 59.9569 297.255 59.9569 300.412C59.9569 303.569 60.6402 306.35 62.0257 308.868C63.4112 311.386 65.2712 313.396 67.6057 314.824C69.9402 316.253 72.5784 316.985 75.5013 316.985Z" fill="#FF5353"/>
<path d="M127.145 323.731V277.186H135.003V285.736L134.13 284.533C135.231 281.884 136.901 279.911 139.14 278.614C141.38 277.318 144.113 276.679 147.34 276.679H150.187V284.27H146.125C142.841 284.27 140.184 285.285 138.172 287.333C136.161 289.381 135.155 292.275 135.155 296.015V323.731H127.126H127.145Z" fill="#FF5353"/>
<path d="M260.706 324.765C256.15 324.765 252.108 323.694 248.578 321.57C245.028 319.447 242.257 316.534 240.245 312.851C238.234 309.168 237.228 305.016 237.228 300.412C237.228 295.808 238.234 291.599 240.245 287.972C242.257 284.345 245.047 281.47 248.578 279.328C252.127 277.205 256.169 276.134 260.706 276.134C263.761 276.134 266.608 276.679 269.265 277.769C271.923 278.859 274.238 280.324 276.269 282.166C278.281 284.007 279.761 286.168 280.672 288.649L273.498 292.106C272.397 289.682 270.727 287.709 268.487 286.187C266.248 284.665 263.647 283.894 260.706 283.894C257.764 283.894 255.334 284.609 253.057 286.055C250.779 287.502 248.976 289.457 247.667 291.937C246.338 294.417 245.674 297.255 245.674 300.487C245.674 303.719 246.338 306.406 247.667 308.905C248.995 311.404 250.798 313.378 253.057 314.824C255.315 316.271 257.878 316.985 260.706 316.985C263.534 316.985 266.229 316.215 268.487 314.693C270.727 313.171 272.397 311.141 273.498 308.605L280.672 312.231C279.742 314.655 278.281 316.797 276.269 318.658C274.257 320.518 271.923 322.003 269.265 323.111C266.608 324.22 263.761 324.746 260.706 324.746V324.765Z" fill="#FF5353"/>
<path d="M321.517 324.765C318.461 324.765 315.766 324.201 313.431 323.073C311.097 321.946 309.275 320.405 307.946 318.413C306.618 316.421 305.953 314.148 305.953 311.555C305.953 308.961 306.485 306.857 307.548 304.865C308.61 302.873 310.281 301.201 312.558 299.81C314.836 298.42 317.702 297.443 321.156 296.879L338.428 294.023V300.75L322.959 303.343C319.96 303.869 317.797 304.809 316.43 306.199C315.083 307.59 314.399 309.281 314.399 311.291C314.399 313.189 315.158 314.768 316.696 316.046C318.233 317.323 320.131 317.943 322.447 317.943C325.388 317.943 327.932 317.323 330.095 316.083C332.259 314.843 333.948 313.171 335.182 311.028C336.416 308.905 337.042 306.537 337.042 303.944V292.106C337.042 289.569 336.112 287.521 334.233 285.924C332.354 284.345 329.906 283.556 326.85 283.556C324.193 283.556 321.858 284.232 319.808 285.585C317.759 286.938 316.259 288.742 315.272 290.978L308.269 287.352C309.142 285.228 310.508 283.312 312.406 281.602C314.304 279.911 316.525 278.558 319.068 277.58C321.593 276.603 324.25 276.115 327.021 276.115C330.589 276.115 333.721 276.791 336.435 278.144C339.149 279.497 341.256 281.376 342.793 283.763C344.311 286.149 345.089 288.93 345.089 292.087V323.694H337.232V314.881L338.693 315.407C337.706 317.248 336.397 318.864 334.727 320.236C333.056 321.627 331.101 322.716 328.843 323.524C326.603 324.332 324.155 324.727 321.498 324.727L321.517 324.765Z" fill="#FF5353"/>
<path d="M374.812 323.731V277.186H382.669V286.675L381.549 285.21C382.707 282.278 384.548 280.023 387.073 278.482C389.597 276.923 392.463 276.152 395.632 276.152C399.258 276.152 402.522 277.167 405.445 279.178C408.368 281.188 410.361 283.838 411.443 287.126L409.203 287.22C410.418 283.594 412.448 280.85 415.333 278.971C418.218 277.092 421.407 276.171 424.918 276.171C428.145 276.171 431.068 276.923 433.687 278.426C436.306 279.929 438.394 281.996 439.95 284.646C441.506 287.295 442.285 290.283 442.285 293.628V323.769H434.161V296.221C434.161 293.628 433.706 291.448 432.776 289.663C431.846 287.878 430.593 286.487 429.018 285.473C427.423 284.458 425.582 283.969 423.438 283.969C421.293 283.969 419.509 284.477 417.858 285.473C416.206 286.487 414.916 287.897 413.967 289.701C413.018 291.505 412.543 293.684 412.543 296.221V323.769H404.42V296.221C404.42 293.628 403.965 291.448 403.034 289.663C402.104 287.878 400.852 286.487 399.276 285.473C397.701 284.458 395.841 283.969 393.696 283.969C391.552 283.969 389.768 284.477 388.116 285.473C386.465 286.487 385.175 287.897 384.226 289.701C383.277 291.505 382.802 293.684 382.802 296.221V323.769H374.774L374.812 323.731Z" fill="#FF5353"/>
<path d="M470.944 341V277.186H478.802V287.202L477.758 285.21C479.485 282.448 481.838 280.249 484.837 278.595C487.836 276.961 491.252 276.134 495.124 276.134C499.509 276.134 503.437 277.205 506.911 279.328C510.403 281.452 513.136 284.345 515.167 288.01C517.179 291.674 518.185 295.827 518.185 300.487C518.185 305.147 517.179 309.15 515.167 312.833C513.155 316.516 510.403 319.428 506.911 321.552C503.418 323.675 499.471 324.746 495.029 324.746C491.29 324.746 487.874 323.919 484.799 322.247C481.725 320.574 479.352 318.226 477.663 315.163L478.953 313.772V340.981H470.925L470.944 341ZM494.441 316.985C497.383 316.985 500.002 316.271 502.299 314.824C504.595 313.378 506.398 311.404 507.689 308.905C508.979 306.406 509.625 303.587 509.625 300.487C509.625 297.386 508.979 294.436 507.689 291.975C506.398 289.532 504.595 287.578 502.299 286.093C500.002 284.627 497.364 283.894 494.441 283.894C491.518 283.894 488.861 284.609 486.545 286.055C484.211 287.502 482.37 289.475 481.022 291.975C479.675 294.474 478.991 297.311 478.991 300.487C478.991 303.663 479.675 306.406 481.022 308.905C482.37 311.404 484.211 313.378 486.545 314.824C488.88 316.271 491.518 316.985 494.441 316.985V316.985Z" fill="#FF5353"/>
<path d="M562.521 324.765C559.181 324.765 556.163 323.994 553.487 322.435C550.811 320.875 548.742 318.714 547.261 315.914C545.8 313.133 545.06 309.92 545.06 306.293V277.186H553.088V305.429C553.088 307.74 553.563 309.751 554.512 311.48C555.461 313.208 556.789 314.561 558.478 315.538C560.168 316.516 562.123 317.004 564.305 317.004C566.488 317.004 568.443 316.516 570.132 315.538C571.821 314.561 573.15 313.152 574.099 311.31C575.048 309.469 575.522 307.289 575.522 304.752V277.205H583.646V323.75H575.788V314.693L577.079 315.463C575.978 318.395 574.118 320.687 571.499 322.322C568.879 323.957 565.862 324.784 562.464 324.784L562.521 324.765Z" fill="#FF5353"/>
<path d="M630.07 324.765C625.401 324.765 621.339 323.618 617.885 321.307C614.431 319.015 611.982 315.895 610.54 311.987L616.936 308.886C618.265 311.649 620.068 313.847 622.383 315.444C624.68 317.06 627.242 317.868 630.07 317.868C632.594 317.868 634.701 317.267 636.371 316.064C638.041 314.862 638.877 313.265 638.877 311.31C638.877 309.92 638.497 308.811 637.719 307.984C636.941 307.157 636.011 306.481 634.91 305.992C633.809 305.504 632.803 305.147 631.892 304.921L624.888 302.929C620.675 301.727 617.619 299.998 615.683 297.743C613.747 295.507 612.798 292.876 612.798 289.889C612.798 287.126 613.501 284.721 614.924 282.673C616.329 280.625 618.265 279.027 620.713 277.881C623.161 276.735 625.913 276.152 628.969 276.152C633.05 276.152 636.732 277.186 639.977 279.253C643.223 281.32 645.557 284.232 646.924 287.972L640.357 290.997C639.313 288.573 637.757 286.675 635.688 285.247C633.619 283.838 631.285 283.124 628.684 283.124C626.331 283.124 624.452 283.706 623.066 284.89C621.681 286.074 620.998 287.558 620.998 289.344C620.998 290.678 621.339 291.749 622.042 292.576C622.744 293.402 623.56 294.041 624.547 294.474C625.534 294.906 626.483 295.263 627.394 295.545L635.005 297.8C638.801 298.889 641.761 300.599 643.868 302.892C645.975 305.203 647.019 307.965 647.019 311.179C647.019 313.772 646.298 316.102 644.855 318.169C643.413 320.236 641.42 321.852 638.896 322.998C636.352 324.145 633.429 324.727 630.089 324.727L630.07 324.765Z" fill="#FF5353"/>
</svg>
